<svg xmlns="http://www.w3.org/2000/svg" viewBox="0 0 1920 1080" preserveAspectRatio="xMidYMid slice">
  <defs>
    <radialGradient id="g0" cx="52%" cy="45%" r="62%">
      <stop offset="0%" stop-color="#2a1b4f"/>
      <stop offset="38%" stop-color="#1a1536"/>
      <stop offset="72%" stop-color="#0b1024"/>
      <stop offset="100%" stop-color="#03050d"/>
    </radialGradient>
    <radialGradient id="nebula1" cx="20%" cy="20%" r="35%">
      <stop offset="0%" stop-color="#45d8ff" stop-opacity="0.42"/>
      <stop offset="100%" stop-color="#45d8ff" stop-opacity="0"/>
    </radialGradient>
    <radialGradient id="nebula2" cx="78%" cy="72%" r="30%">
      <stop offset="0%" stop-color="#8c53ff" stop-opacity="0.36"/>
      <stop offset="100%" stop-color="#8c53ff" stop-opacity="0"/>
    </radialGradient>
    <radialGradient id="nebula3" cx="65%" cy="24%" r="24%">
      <stop offset="0%" stop-color="#00e0ff" stop-opacity="0.20"/>
      <stop offset="100%" stop-color="#00e0ff" stop-opacity="0"/>
    </radialGradient>
    <filter id="soft" x="-20%" y="-20%" width="140%" height="140%">
      <feGaussianBlur stdDeviation="28"/>
    </filter>
  </defs>

  <rect width="1920" height="1080" fill="url(#g0)"/>

  <ellipse cx="350" cy="240" rx="420" ry="260" fill="url(#nebula1)" filter="url(#soft)"/>
  <ellipse cx="1450" cy="770" rx="450" ry="290" fill="url(#nebula2)" filter="url(#soft)"/>
  <ellipse cx="1260" cy="230" rx="280" ry="190" fill="url(#nebula3)" filter="url(#soft)"/>

  <g fill="#e8f4ff" opacity="0.82">
    <circle cx="140" cy="130" r="1.2"/>
    <circle cx="260" cy="70" r="1.1"/>
    <circle cx="330" cy="180" r="1.4"/>
    <circle cx="470" cy="110" r="1.0"/>
    <circle cx="620" cy="80" r="1.5"/>
    <circle cx="720" cy="210" r="1.0"/>
    <circle cx="860" cy="120" r="1.2"/>
    <circle cx="1030" cy="90" r="1.4"/>
    <circle cx="1160" cy="200" r="1.1"/>
    <circle cx="1320" cy="120" r="1.4"/>
    <circle cx="1470" cy="170" r="1.1"/>
    <circle cx="1620" cy="120" r="1.5"/>
    <circle cx="1750" cy="190" r="1.1"/>
    <circle cx="1840" cy="130" r="1.3"/>
    <circle cx="190" cy="340" r="1.2"/>
    <circle cx="420" cy="300" r="1.1"/>
    <circle cx="580" cy="390" r="1.3"/>
    <circle cx="720" cy="330" r="1.0"/>
    <circle cx="840" cy="420" r="1.4"/>
    <circle cx="1010" cy="340" r="1.1"/>
    <circle cx="1190" cy="390" r="1.3"/>
    <circle cx="1370" cy="300" r="1.0"/>
    <circle cx="1510" cy="420" r="1.5"/>
    <circle cx="1670" cy="330" r="1.2"/>
    <circle cx="1820" cy="380" r="1.1"/>
    <circle cx="130" cy="560" r="1.1"/>
    <circle cx="280" cy="500" r="1.3"/>
    <circle cx="460" cy="590" r="1.1"/>
    <circle cx="600" cy="520" r="1.4"/>
    <circle cx="780" cy="610" r="1.1"/>
    <circle cx="920" cy="520" r="1.0"/>
    <circle cx="1110" cy="620" r="1.4"/>
    <circle cx="1240" cy="530" r="1.1"/>
    <circle cx="1410" cy="620" r="1.5"/>
    <circle cx="1570" cy="540" r="1.1"/>
    <circle cx="1730" cy="610" r="1.3"/>
    <circle cx="1860" cy="530" r="1.1"/>
    <circle cx="180" cy="820" r="1.2"/>
    <circle cx="340" cy="740" r="1.0"/>
    <circle cx="520" cy="860" r="1.5"/>
    <circle cx="690" cy="760" r="1.1"/>
    <circle cx="850" cy="900" r="1.2"/>
    <circle cx="1020" cy="780" r="1.1"/>
    <circle cx="1180" cy="920" r="1.4"/>
    <circle cx="1350" cy="780" r="1.0"/>
    <circle cx="1510" cy="910" r="1.5"/>
    <circle cx="1670" cy="790" r="1.1"/>
    <circle cx="1830" cy="900" r="1.2"/>
  </g>
</svg>
